<?xml version="1.0" encoding="UTF-8"?>
<svg width="700pt" height="700pt" version="1.1" viewBox="0 0 700 700" xmlns="http://www.w3.org/2000/svg">
 <g>
  <path d="m599.83 193.5-70-70c-2.0195-1.9805-4.3945-3.5625-7-4.668-0.75781-0.32031-1.5352-0.59375-2.332-0.81641-1.8789-0.625-3.832-1.0117-5.8086-1.1445-0.79297 0-1.5391-0.14062-2.332 0h-0.003907c-2.5195 0.078125-5.0078 0.56641-7.3711 1.4492-0.21094 0-0.42188 0-0.60547 0.14062-2.5469 1.1328-4.8711 2.7109-6.8633 4.6641-0.21094 0.1875-0.48828 0.25781-0.69922 0.46484l-70 70v0.003906c-4.5 4.3477-7.0664 10.32-7.1211 16.578-0.054687 6.2617 2.4062 12.277 6.832 16.703 4.4258 4.4258 10.445 6.8867 16.703 6.832 6.2578-0.054688 12.23-2.6211 16.582-7.1211l30.191-30.262v83.672c0 8.3359 4.4492 16.039 11.668 20.207s16.113 4.168 23.332 0 11.668-11.871 11.668-20.207v-83.672l30.172 30.172-0.003906-0.003906c5.9258 5.7266 14.434 7.8984 22.379 5.7188 7.9492-2.1758 14.156-8.3867 16.336-16.332 2.1758-7.9453 0.003907-16.453-5.7227-22.379z"/>
  <path d="m373.33 326.67v-233.34c0-18.562-7.375-36.367-20.5-49.496-13.129-13.129-30.934-20.504-49.5-20.504-18.48-0.14844-36.23 7.2109-49.184 20.395-0.93359 0.91016-1.6094 1.9844-2.4727 2.9414h-88.344c-8.3359 0-16.039 4.4453-20.207 11.664s-4.168 16.117 0 23.336 11.871 11.664 20.207 11.664h70v23.336h-46.664c-8.3359 0-16.039 4.4453-20.207 11.664-4.168 7.2188-4.168 16.117 0 23.336 4.168 7.2188 11.871 11.664 20.207 11.664h46.664v23.336h-46.664c-8.3359 0-16.039 4.4453-20.207 11.664-4.168 7.2188-4.168 16.117 0 23.336 4.168 7.2188 11.871 11.664 20.207 11.664h46.664v23.332l-70 0.003907c-8.3359 0-16.039 4.4453-20.207 11.664s-4.168 16.117 0 23.336 11.871 11.664 20.207 11.664h70v23.336c-26.285 19.715-43.039 49.602-46.145 82.312-3.1016 32.711 7.7305 65.215 29.84 89.523 22.113 24.305 53.449 38.164 86.305 38.164 32.859 0 64.195-13.859 86.305-38.164 22.109-24.309 32.945-56.812 29.84-89.523-3.1016-32.711-19.855-62.598-46.145-82.312zm-70 163.33c-20.641-0.058594-40.199-9.2266-53.453-25.047-13.258-15.824-18.852-36.688-15.293-57.02 3.5586-20.332 15.906-38.059 33.746-48.438 3.5508-2.0508 6.5-5 8.5469-8.5508 2.0508-3.5508 3.125-7.5781 3.1211-11.68v-245.93c-0.015625-6.293 2.5664-12.312 7.1406-16.637 4.2695-4.3242 10.113-6.7422 16.191-6.6953 6.1914 0 12.125 2.457 16.5 6.8359 4.375 4.375 6.8359 10.309 6.8359 16.496v245.93c-0.003907 4.1016 1.0703 8.1289 3.1172 11.68 2.0508 3.5508 4.9961 6.5 8.5469 8.5508 17.84 10.379 30.191 28.105 33.75 48.438 3.5586 20.332-2.0391 41.195-15.293 57.02-13.254 15.82-32.816 24.988-53.457 25.047z"/>
 </g>
</svg>
