<?xml version="1.0" encoding="UTF-8"?>
<svg width="700pt" height="700pt" version="1.1" viewBox="0 0 700 700" xmlns="http://www.w3.org/2000/svg">
 <g>
  <path d="m599.83 193.5c-4.375-4.375-10.309-6.832-16.496-6.832s-12.121 2.457-16.496 6.832l-30.168 30.168v-83.672c0-8.3359-4.4492-16.039-11.668-20.207s-16.113-4.168-23.332 0-11.668 11.871-11.668 20.207v83.672l-30.172-30.168c-5.9258-5.7266-14.43-7.8984-22.379-5.7188-7.9453 2.1758-14.152 8.3867-16.332 16.332-2.1797 7.9453-0.003907 16.453 5.7188 22.379l70 70c0.21094 0.21094 0.48828 0.28125 0.69922 0.46484v0.003906c1.9922 1.9531 4.3125 3.5312 6.8633 4.6641 2.8359 1.1484 5.875 1.7266 8.9336 1.7031 6.1836-0.019531 12.113-2.4766 16.496-6.8359l70-70c4.375-4.375 6.832-10.309 6.832-16.496s-2.457-12.121-6.832-16.496z"/>
  <path d="m350 326.67v-233.34c0-18.562-7.375-36.367-20.504-49.496-13.125-13.129-30.93-20.504-49.496-20.504-18.473-0.15234-36.215 7.1992-49.164 20.371-0.95703 0.91016-1.6328 2.0078-2.4961 2.9648h-88.34c-8.3359 0-16.039 4.4453-20.207 11.664s-4.168 16.117 0 23.336 11.871 11.664 20.207 11.664h70v23.336h-46.668c-8.3359 0-16.039 4.4453-20.207 11.664s-4.168 16.117 0 23.336 11.871 11.664 20.207 11.664h46.668v23.336h-46.668c-8.3359 0-16.039 4.4453-20.207 11.664s-4.168 16.117 0 23.336 11.871 11.664 20.207 11.664h46.668v23.332l-70 0.003907c-8.3359 0-16.039 4.4453-20.207 11.664s-4.168 16.117 0 23.336 11.871 11.664 20.207 11.664h70v23.336c-26.285 19.715-43.043 49.602-46.145 82.312-3.1055 32.711 7.7305 65.215 29.84 89.523 22.109 24.305 53.445 38.164 86.305 38.164s64.195-13.859 86.305-38.164c22.109-24.309 32.945-56.812 29.84-89.523-3.1016-32.711-19.859-62.598-46.145-82.312zm-70 163.33c-20.641-0.058594-40.203-9.2266-53.457-25.047-13.254-15.824-18.848-36.688-15.293-57.02 3.5586-20.332 15.91-38.059 33.75-48.438 3.5508-2.0508 6.5-5 8.5469-8.5508 2.0469-3.5508 3.125-7.5781 3.1211-11.68v-245.93c-0.015625-6.2969 2.5781-12.316 7.1602-16.637 4.2578-4.332 10.098-6.75 16.172-6.6953 6.1875 0 12.125 2.457 16.5 6.8359 4.375 4.375 6.832 10.309 6.832 16.496v245.93c-0.003906 4.1016 1.0742 8.1289 3.1211 11.68 2.0469 3.5508 4.9961 6.5 8.5469 8.5508 17.84 10.379 30.191 28.105 33.75 48.438 3.5547 20.332-2.0391 41.195-15.293 57.02-13.254 15.82-32.816 24.988-53.457 25.047z"/>
 </g>
</svg>
