<?xml version="1.0" encoding="iso-8859-1"?>
<!-- Generator: Adobe Illustrator 18.0.0, SVG Export Plug-In . SVG Version: 6.00 Build 0)  -->
<!DOCTYPE svg PUBLIC "-//W3C//DTD SVG 1.1//EN" "http://www.w3.org/Graphics/SVG/1.1/DTD/svg11.dtd">
<svg version="1.1" id="Capa_1" xmlns="http://www.w3.org/2000/svg" xmlns:xlink="http://www.w3.org/1999/xlink" x="0px" y="0px"
	 viewBox="0 0 297 297" style="enable-background:new 0 0 297 297;" xml:space="preserve">
<g>
	<g>
		<path d="M233.589,253.819c-7.296,1.649-24.857,6.075-30.344,11.563c-0.001,0-0.001,0-0.001,0c-3.499,3.5-5.426,8.153-5.426,13.101
			c0,4.949,1.928,9.601,5.427,13.099c3.611,3.612,8.355,5.418,13.1,5.418c4.743,0,9.488-1.805,13.1-5.417
			c5.49-5.489,9.914-23.051,11.562-30.347c0.468-2.076-0.159-4.247-1.665-5.753C237.837,253.978,235.662,253.354,233.589,253.819z"
			/>
		<path d="M154.563,253.819c-7.296,1.649-24.856,6.074-30.345,11.562c0,0.001-0.001,0.001-0.001,0.001
			c-7.223,7.226-7.221,18.979,0.002,26.2c3.612,3.612,8.355,5.418,13.1,5.418c4.743,0,9.487-1.805,13.099-5.416
			c5.49-5.489,9.916-23.052,11.563-30.348c0.468-2.076-0.16-4.247-1.665-5.753C158.81,253.978,156.637,253.354,154.563,253.819z"/>
		<path d="M74.41,253.819c-7.296,1.649-24.856,6.074-30.345,11.562c0,0.001-0.001,0.001-0.001,0.001
			c-7.223,7.226-7.221,18.979,0.002,26.2c3.612,3.612,8.355,5.418,13.1,5.418c4.743,0,9.487-1.805,13.099-5.416
			c5.49-5.489,9.915-23.052,11.563-30.348c0.468-2.076-0.16-4.247-1.665-5.753C78.657,253.978,76.483,253.354,74.41,253.819z"/>
		<path d="M233.589,155.645c-7.296,1.649-24.857,6.075-30.344,11.563c-0.001,0-0.001,0-0.001,0c-3.499,3.5-5.426,8.153-5.426,13.101
			c0,4.949,1.928,9.602,5.427,13.099c3.611,3.612,8.355,5.418,13.1,5.418c4.743,0,9.488-1.805,13.1-5.417
			c5.49-5.489,9.914-23.051,11.562-30.347c0.468-2.076-0.159-4.247-1.665-5.753C237.837,155.803,235.662,155.179,233.589,155.645z"
			/>
		<path d="M154.563,155.645c-7.296,1.649-24.856,6.074-30.345,11.562c0,0.001-0.001,0.001-0.001,0.001
			c-7.223,7.226-7.221,18.979,0.002,26.2c3.612,3.612,8.355,5.418,13.1,5.418c4.743,0,9.487-1.805,13.099-5.416
			c5.49-5.489,9.916-23.052,11.563-30.348c0.468-2.076-0.16-4.247-1.665-5.753C158.81,155.803,156.637,155.179,154.563,155.645z"/>
		<path d="M74.41,155.645c-7.296,1.649-24.856,6.074-30.345,11.562c0,0.001-0.001,0.001-0.001,0.001
			c-7.223,7.226-7.221,18.979,0.002,26.2c3.612,3.612,8.355,5.418,13.1,5.418c4.743,0,9.487-1.805,13.099-5.416
			c5.49-5.489,9.915-23.052,11.563-30.348c0.468-2.076-0.16-4.247-1.665-5.753C78.657,155.803,76.483,155.179,74.41,155.645z"/>
		<path d="M200.392,207.392c-1.505-1.505-3.68-2.128-5.753-1.664c-7.296,1.649-24.856,6.074-30.344,11.561
			c0,0.001-0.001,0.001-0.001,0.001c-3.499,3.5-5.426,8.154-5.426,13.101c0,4.949,1.928,9.602,5.427,13.099
			c3.498,3.499,8.151,5.427,13.1,5.427c4.948,0,9.6-1.926,13.1-5.426c5.489-5.489,9.915-23.051,11.562-30.346
			C202.525,211.069,201.897,208.897,200.392,207.392z"/>
		<path d="M120.238,207.392c-1.505-1.505-3.678-2.128-5.753-1.664c-7.296,1.649-24.856,6.074-30.344,11.561
			c0,0.001-0.001,0.001-0.001,0.001c-3.499,3.5-5.426,8.154-5.426,13.101c0,4.949,1.928,9.602,5.427,13.099
			c3.498,3.499,8.151,5.427,13.1,5.427c4.948,0,9.6-1.926,13.1-5.426c5.489-5.489,9.914-23.051,11.562-30.346
			C122.372,211.069,121.744,208.897,120.238,207.392z"/>
	</g>
	<g>
		<path d="M280.626,94.118c0-23.953-19.487-43.441-43.44-43.441c-8.331,0-16.435,2.376-23.433,6.872
			c-1.98,1.271-4.453,1.5-6.631,0.617c-2.18-0.883-3.794-2.772-4.328-5.062C195.504,21.837,167.967,0,135.831,0
			C106.657,0,80.57,18.497,70.919,46.027c-1.09,3.11-4.145,5.096-7.428,4.818c-1.363-0.113-2.565-0.167-3.678-0.167
			c-23.953,0-43.44,19.488-43.44,43.441c0,23.954,19.487,43.44,43.44,43.44h177.373C261.14,137.558,280.626,118.072,280.626,94.118z
			"/>
	</g>
</g>
<g>
</g>
<g>
</g>
<g>
</g>
<g>
</g>
<g>
</g>
<g>
</g>
<g>
</g>
<g>
</g>
<g>
</g>
<g>
</g>
<g>
</g>
<g>
</g>
<g>
</g>
<g>
</g>
<g>
</g>
</svg>
